<svg id="Capa_1" enable-background="new 0 0 512 512" height="512" viewBox="0 0 512 512" width="512" xmlns="http://www.w3.org/2000/svg"><g><path d="m512 256c0 78.51-35.34 148.77-90.99 195.72-16.56 13.98-56.331 14.345-76.101 23.785-24.82 11.88-30.439 8.235-58.899 11.556-9.84 1.16-22.61-10.397-32.76-10.397-2.75 0 2.73.09 0 0-.03.01.02.01 0 0-47-1.5-72.475-23.358-109.765-46.888-32.51-20.5-83.955-5.214-104.395-37.764-24.77-39.402-39.09-86.042-39.09-136.012 0-141.38 114.62-256 256-256s256 114.62 256 256z" fill="#9dc6fb"/><path d="m368.402 3.298h38.907v478.658h-38.907z" fill="#98695e" transform="matrix(.986 .164 -.164 .986 45.148 -60.442)"/><path d="m344.909 475.505 23.23 3.87-.42 2.529-38.38-6.399 78.66-472.15 15.15 2.529z" fill="#664545"/><path d="m421.01 451.72c-37.36 31.54-83.88 52.56-135 58.53-9.84 1.16-19.86 1.75-30.01 1.75h-5.56c-.93 0-1.85-.04-2.75-.13-15.35-1.38-27.39-14.29-27.39-30.01 0-8.32 3.38-15.86 8.83-21.31s12.99-8.83 21.31-8.83z" fill="#98695e"/><path d="m366.32 487.06c-24.82 11.88-51.85 19.87-80.31 23.19-9.84 1.16-19.86 1.75-30.01 1.75h-5.56c-.9 0-1.79-.04-2.67-.13-.03.01-.06.01-.08 0-15.36-1.38-27.39-14.29-27.39-30.01 0-4.45.96-8.67 2.7-12.47 4.74 10.43 15.24 17.67 27.44 17.67z" fill="#664545"/><g><circle cx="364.894" cy="233.735" fill="#e4f6ff" r="21.979"/><path d="m372.055 254.514c-2.24.771-4.653 1.194-7.167 1.194-12.144 0-21.973-9.842-21.973-21.973 0-12.144 9.829-21.986 21.973-21.986 2.513 0 4.927.423 7.167 1.194-8.622 2.974-14.806 11.161-14.806 20.791 0 9.619 6.183 17.806 14.806 20.78z" fill="#cbe2ff"/></g><g><path d="m321.57 199.38-4.82 42.12-2.69 23.58-13.3 116.24-14.75 128.93-.2 1.75h-29.81c-91.41 0-171.63-47.91-216.91-119.99l-17.22-150.51-4.81-42.12z" fill="#ffe07d"/><path d="m119.61 472.68c-32.51-20.5-60.08-48.12-80.52-80.67l-22.03-192.63h89.7z" fill="#ffc250"/><path d="m270.463 218.098c25.431 0 46.046-20.616 46.046-46.046s-20.615-46.046-46.046-46.046c-.914 0-1.821.034-2.722.087-4.674-20.477-22.985-35.761-44.879-35.761-11.644 0-22.271 4.331-30.38 11.458-5.414-11.568-17.152-19.585-30.768-19.585-12.49 0-23.398 6.748-29.297 16.792-7.563-5.446-16.838-8.665-26.871-8.665-25.43 0-46.046 20.615-46.046 46.046 0 1.22.062 2.424.155 3.62-1.179-.124-2.374-.19-3.586-.19-18.755 0-33.96 15.204-33.96 33.96 0 18.755 15.204 33.96 33.96 33.96" fill="#e4f6ff"/><path d="m244.91 186.687h-73.159v-22.613h58.751c7.958 0 14.408 6.451 14.408 14.408z" fill="#dd5790"/><path d="m283.141 216.335c-4.027 1.152-8.283 1.773-12.678 1.773l-214.396-10.373c-18.757 0-33.955-15.211-33.955-33.968 0-18.745 15.198-33.955 33.955-33.955 1.216 0 2.406.063 3.584.19-.089-1.19-.152-2.394-.152-3.622 0-25.432 20.619-46.038 46.05-46.038 9.056 0 17.503 2.621 24.621 7.156-12.855 8.156-21.392 22.519-21.392 38.882 0 1.228.063 2.432.152 3.622-1.178-.127-2.368-.19-3.584-.19-18.757 0-33.955 15.211-33.955 33.955 0 18.757 15.198 33.968 33.955 33.968z" fill="#cbe2ff"/><path d="m321.566 199.383-4.813 42.112h-294.883l-4.813-42.112z" fill="#ffc250"/><path d="m313.982 177.899h-289.344c-13.607 0-24.638 11.031-24.638 24.639 0 13.607 11.031 24.638 24.638 24.638h289.343c13.607 0 24.638-11.031 24.638-24.638.001-13.608-11.03-24.639-24.637-24.639z" fill="#ffe07d"/><path d="m307.087 341.232h-58.051c-5.595 0-10.132-4.536-10.132-10.132s4.537-10.132 10.132-10.132h58.051c11.718 0 19.035-7.585 21.975-14.683s3.129-17.635-5.158-25.921l-70.662-70.661c-3.957-3.957-3.957-10.372 0-14.329 3.958-3.957 10.372-3.957 14.33 0l70.662 70.661c12.837 12.837 16.497 31.232 9.55 48.005-6.949 16.772-22.542 27.192-40.697 27.192z" fill="#26457d"/><path d="m83.033 219.952c4.458 4.458 10.613 7.219 17.415 7.219h-75.802c-6.814 0-12.969-2.761-17.427-7.219s-7.219-10.613-7.219-17.414c0-13.615 11.031-24.647 24.646-24.647h75.801c-13.602 0-24.634 11.032-24.634 24.647.001 6.801 2.762 12.956 7.22 17.414z" fill="#ffc250"/><path d="m309.775 302.491-9.018 78.828h-75.218v-116.241h50.859c20.067 0 35.658 17.477 33.377 37.413z" fill="#ffe07d"/></g><g><circle cx="285.778" cy="59.895" fill="#e4f6ff" r="21.979"/><path d="m292.939 80.674c-2.24.771-4.653 1.194-7.167 1.194-12.144 0-21.973-9.842-21.973-21.973 0-12.144 9.829-21.986 21.973-21.986 2.513 0 4.927.423 7.167 1.194-8.622 2.974-14.806 11.161-14.806 20.791 0 9.619 6.184 17.806 14.806 20.78z" fill="#cbe2ff"/></g><g><circle cx="477.574" cy="267.162" fill="#e4f6ff" r="21.979"/><path d="m484.736 287.94c-2.24.771-4.653 1.194-7.167 1.194-12.144 0-21.973-9.842-21.973-21.973 0-12.144 9.829-21.986 21.973-21.986 2.513 0 4.927.423 7.167 1.194-8.622 2.974-14.806 11.161-14.806 20.791-.001 9.62 6.183 17.807 14.806 20.78z" fill="#cbe2ff"/></g><g><circle cx="428.622" cy="346.819" fill="#e4f6ff" r="29.115"/><path d="m438.108 374.344c-2.967 1.022-6.164 1.582-9.494 1.582-16.086 0-29.107-13.037-29.107-29.107 0-16.086 13.021-29.124 29.107-29.124 3.329 0 6.527.56 9.494 1.582-11.422 3.939-19.613 14.784-19.613 27.541 0 12.742 8.191 23.587 19.613 27.526z" fill="#cbe2ff"/></g><g><circle cx="453.709" cy="199.318" fill="#e4f6ff" r="14.003"/><path d="m458.272 212.557c-1.427.492-2.965.761-4.566.761-7.737 0-14-6.271-14-14 0-7.737 6.263-14.008 14-14.008 1.601 0 3.139.27 4.566.761-5.494 1.895-9.434 7.111-9.434 13.247 0 6.128 3.94 11.344 9.434 13.239z" fill="#cbe2ff"/></g><g><circle cx="209.97" cy="37.728" fill="#e4f6ff" r="27.945"/><path d="m219.075 64.147c-2.848.981-5.917 1.519-9.112 1.519-15.44 0-27.937-12.513-27.937-27.938 0-15.44 12.497-27.953 27.937-27.953 3.196 0 6.265.538 9.112 1.519-10.963 3.781-18.825 14.19-18.825 26.435 0 12.228 7.862 22.637 18.825 26.418z" fill="#cbe2ff"/></g><path d="m198.603 164.074h-149.787c-9.057 0-16.4 7.343-16.4 16.4v107.745c0 12.246 9.928 22.174 22.174 22.174h121.839c12.246 0 22.174-9.927 22.174-22.174v-88.835-8.78c0-7.016 5.688-12.704 12.704-12.704l3.01-6.842z" fill="#dd5790"/><path d="m65.316 310.394h-10.72c-12.25 0-22.18-9.93-22.18-22.18v-107.74c0-9.06 7.35-16.4 16.4-16.4h10.73c-9.06 0-16.4 7.34-16.4 16.4v107.74c0 12.25 9.93 22.18 22.17 22.18z" fill="#9d549b"/></g></svg>