<svg width="171" height="171" viewBox="0 0 171 171" fill="none" xmlns="http://www.w3.org/2000/svg">
<path d="M126.056 113.817C112.581 113.817 101.619 102.938 101.619 89.5652C101.619 85.1334 102.833 80.7994 105.135 77.0265L124.165 42.2803C124.541 41.5915 125.268 41.1636 126.056 41.1636C126.845 41.1636 127.572 41.5915 127.949 42.2803L146.979 77.0265C149.279 80.7994 150.494 85.1334 150.494 89.5652C150.495 102.938 139.532 113.817 126.056 113.817Z" fill="#64CBFF"/>
<path d="M114.131 87.543C112.748 87.543 111.626 86.4211 111.626 85.0382V82.2437C111.626 80.8594 112.748 79.7388 114.131 79.7388C115.516 79.7388 116.636 80.8594 116.636 82.2437V85.0382C116.636 86.4211 115.516 87.543 114.131 87.543Z" fill="#083E63"/>
<path d="M137.981 87.543C136.598 87.543 135.476 86.4211 135.476 85.0382V82.2437C135.476 80.8594 136.598 79.7388 137.981 79.7388C139.365 79.7388 140.486 80.8594 140.486 82.2437V85.0382C140.486 86.4211 139.365 87.543 137.981 87.543Z" fill="#083E63"/>
<path d="M126.056 103.146C121.581 103.146 117.94 99.5156 117.94 95.0525C117.94 93.6696 119.062 92.5476 120.444 92.5476C121.829 92.5476 122.949 93.6696 122.949 95.0525C122.949 96.7524 124.343 98.1366 126.056 98.1366C127.77 98.1366 129.163 96.7524 129.163 95.0525C129.163 93.6696 130.285 92.5476 131.668 92.5476C133.052 92.5476 134.173 93.6696 134.173 95.0525C134.173 99.5156 130.532 103.146 126.056 103.146Z" fill="#083E63"/>
<path d="M91.9396 51.4375C84.3337 51.4375 78.1458 45.2966 78.1458 37.7494C78.1458 35.2484 78.8321 32.8022 80.1302 30.6718L90.8725 11.0606C91.0838 10.6718 91.4948 10.4305 91.9396 10.4305C92.3845 10.4305 92.7942 10.6718 93.0068 11.0606L103.749 30.6718C105.047 32.8009 105.732 35.2484 105.732 37.7494C105.733 45.2966 99.5456 51.4375 91.9396 51.4375Z" fill="#1DD9DD"/>
<path d="M145.649 25.4898C140.922 25.4898 137.076 21.6738 137.076 16.9823C137.076 15.4272 137.501 13.906 138.309 12.5818L144.986 0.391388C145.118 0.150032 145.373 0 145.649 0C145.926 0 146.181 0.150032 146.313 0.391388L152.991 12.5818C153.797 13.906 154.224 15.4272 154.224 16.9823C154.224 21.6738 150.378 25.4898 145.649 25.4898Z" fill="#64CBFF"/>
<path d="M107.255 141.685C106.387 142.553 105.229 143.03 103.992 143.03C102.754 143.03 101.595 142.553 100.728 141.685L98.6076 139.566H87.4061C84.8346 139.566 81.2821 138.236 79.1804 136.533L88.4458 145.153C90.5567 146.491 93.4543 147.457 95.6435 147.457H136.692V144.562C136.692 141.808 134.452 139.566 131.697 139.566H109.376L107.255 141.685Z" fill="#F7C39F"/>
<path d="M148.605 155.136H104.185C101.422 155.136 97.53 153.605 95.5065 151.723L75.8588 133.441C75.1791 132.81 74.7942 131.924 74.7942 130.996V130.169C74.7942 128.326 76.2893 126.829 78.1341 126.829H84.0088C84.8947 126.829 85.744 127.182 86.3702 127.808L100.491 141.922C101.423 142.853 102.665 143.365 103.99 143.365C105.317 143.365 106.559 142.853 107.491 141.922L112.798 136.618C113.728 135.688 114.241 134.446 114.241 133.121C114.241 131.796 113.728 130.554 112.798 129.624L91.5313 108.369C89.6017 106.441 85.8118 104.871 83.0838 104.871H64.7864V150.056L83.1869 167.548C85.1882 169.451 89.0655 171 91.8274 171H148.605C151.367 171 153.615 168.752 153.615 165.99V160.146C153.615 157.384 151.367 155.136 148.605 155.136Z" fill="#FFB98A"/>
<path d="M88.4458 145.153L95.5065 151.723C97.53 153.604 101.422 155.136 104.185 155.136H144.931V152.452C144.931 149.697 142.69 147.457 139.936 147.457H95.6435C93.4543 147.457 90.5567 146.491 88.4458 145.153Z" fill="#FFD5B3"/>
<path d="M148.605 155.136H104.185C101.422 155.136 97.53 153.605 95.5065 151.723L75.8588 133.441C75.1791 132.81 74.7942 131.924 74.7942 130.996V130.169C74.7942 128.326 76.2893 126.829 78.1341 126.829H84.0088C84.8947 126.829 85.744 127.182 86.3702 127.808L100.491 141.922C101.423 142.853 102.665 143.365 103.99 143.365C105.317 143.365 106.559 142.853 107.491 141.922L112.798 136.618C113.728 135.688 114.241 134.446 114.241 133.121C114.241 131.796 113.728 130.554 112.798 129.624L91.5313 108.369C89.6017 106.441 85.8118 104.871 83.0838 104.871H64.7864V150.056L83.1869 167.548C85.1882 169.451 89.0655 171 91.8274 171H148.605C151.367 171 153.615 168.752 153.615 165.99V160.146C153.615 157.384 151.367 155.136 148.605 155.136Z" fill="#FFB98A"/>
<path d="M148.605 155.136H104.185C101.422 155.136 97.53 153.605 95.5065 151.723L75.8588 133.441C75.1791 132.81 74.7942 131.924 74.7942 130.996V130.169C74.7942 128.326 76.2893 126.829 78.1341 126.829H84.0088C84.8947 126.829 85.744 127.182 86.3702 127.808L100.491 141.922C101.423 142.853 102.665 143.365 103.99 143.365C105.317 143.365 106.559 142.853 107.491 141.922L112.798 136.618C113.728 135.688 114.241 134.446 114.241 133.121C114.241 131.796 113.728 130.554 112.798 129.624L91.5313 108.369C89.6017 106.441 85.8118 104.871 83.0838 104.871H64.7864V150.056L83.1869 167.548C85.1882 169.451 89.0655 171 91.8274 171H148.605C151.367 171 153.615 168.752 153.615 165.99V160.146C153.615 157.384 151.367 155.136 148.605 155.136Z" fill="#FFB98A"/>
<path d="M41.992 101.443H18.42C17.4729 101.443 16.6992 102.216 16.6992 103.163V153.11C16.6992 154.056 17.4729 154.83 18.42 154.83H41.992V101.443Z" fill="#C0272D"/>
<path d="M43.3971 97.9318C42.4499 97.9318 41.675 98.7054 41.675 99.6526V156.62C41.675 157.566 42.4499 158.341 43.3971 158.341H63.3814C64.3285 158.341 65.1022 157.566 65.1022 156.62V99.6526C65.1022 98.7054 64.3285 97.9318 63.3814 97.9318H43.3971Z" fill="#EF5050"/>
<path d="M53.0057 150.365C51.6215 150.365 50.4995 149.243 50.4995 147.86V143.569C50.4995 142.185 51.6215 141.064 53.0057 141.064C54.3886 141.064 55.5106 142.185 55.5106 143.569V147.86C55.5106 149.243 54.3886 150.365 53.0057 150.365Z" fill="#960B15"/>
</svg>
